<svg width="23" height="23" viewBox="0 0 23 23" fill="none" xmlns="http://www.w3.org/2000/svg">
<path d="M20.4882 0.682617H3.30066C2.67906 0.682617 2.08292 0.929547 1.64338 1.36909C1.20384 1.80862 0.956909 2.40477 0.956909 3.02637L0.956909 20.2139C0.956909 20.8355 1.20384 21.4316 1.64338 21.8711C2.08292 22.3107 2.67906 22.5576 3.30066 22.5576H10.0023V15.1206H6.92615V11.6201H10.0023V8.95215C10.0023 5.91748 11.809 4.24121 14.5761 4.24121C15.9012 4.24121 17.287 4.47754 17.287 4.47754V7.45605H15.7601C14.2557 7.45605 13.7865 8.38965 13.7865 9.34717V11.6201H17.1449L16.6078 15.1206H13.7865V22.5576H20.4882C21.1098 22.5576 21.7059 22.3107 22.1454 21.8711C22.585 21.4316 22.8319 20.8355 22.8319 20.2139V3.02637C22.8319 2.40477 22.585 1.80862 22.1454 1.36909C21.7059 0.929547 21.1098 0.682617 20.4882 0.682617V0.682617Z" fill="url(#paint0_linear_108_5)"/>
<defs>
<linearGradient id="paint0_linear_108_5" x1="0.103785" y1="11.6201" x2="20.7538" y2="11.6201" gradientUnits="userSpaceOnUse">
<stop stop-color="#5628D2"/>
<stop offset="0.322" stop-color="#A39FFF"/>
<stop offset="1" stop-color="#FF6A00"/>
</linearGradient>
</defs>
</svg>
