<svg width="26" height="22" viewBox="0 0 26 22" fill="none" xmlns="http://www.w3.org/2000/svg">
<path d="M22.5248 6.04268C22.5406 6.26475 22.5406 6.48686 22.5406 6.70894C22.5406 13.4824 17.3852 21.287 7.96262 21.287C5.05969 21.287 2.36301 20.4462 0.0946045 18.9869C0.507056 19.0344 0.903589 19.0503 1.33191 19.0503C3.72717 19.0503 5.93215 18.2413 7.69294 16.8612C5.44041 16.8136 3.55271 15.3384 2.90232 13.3079C3.2196 13.3555 3.53684 13.3872 3.87 13.3872C4.33 13.3872 4.79006 13.3237 5.21833 13.2127C2.87063 12.7368 1.10979 10.6747 1.10979 8.18418V8.12075C1.79187 8.50146 2.58508 8.7394 3.42576 8.77109C2.04568 7.85103 1.14153 6.28062 1.14153 4.50396C1.14153 3.5522 1.39529 2.67974 1.83948 1.91831C4.36169 5.02744 8.15295 7.05786 12.4042 7.27998C12.3249 6.89927 12.2773 6.50273 12.2773 6.10615C12.2773 3.28252 14.5615 0.982422 17.401 0.982422C18.8762 0.982422 20.2087 1.60107 21.1447 2.60044C22.3026 2.37837 23.413 1.95005 24.3966 1.36313C24.0158 2.55288 23.2068 3.55225 22.144 4.18672C23.1751 4.07573 24.1745 3.79014 25.0945 3.3936C24.3967 4.40879 23.5241 5.31294 22.5248 6.04268V6.04268Z" fill="url(#paint0_linear_112_5)"/>
<defs>
<linearGradient id="paint0_linear_112_5" x1="-0.880391" y1="11.1347" x2="22.7195" y2="11.1347" gradientUnits="userSpaceOnUse">
<stop stop-color="#5628D2"/>
<stop offset="0.322" stop-color="#5628D2"/>
<stop offset="1" stop-color="#FF6A00"/>
</linearGradient>
</defs>
</svg>
