<svg width="26" height="26" viewBox="0 0 26 26" fill="none" xmlns="http://www.w3.org/2000/svg">
<path d="M20.6635 4.96094C18.6176 2.91016 15.8929 1.78223 12.9974 1.78223C7.02087 1.78223 2.15759 6.64551 2.15759 12.6221C2.15759 14.5312 2.65564 16.3965 3.60291 18.042L2.06482 23.6572L7.81189 22.1484C9.39392 23.0127 11.1761 23.4668 12.9926 23.4668H12.9974C18.9691 23.4668 23.9398 18.6035 23.9398 12.627C23.9398 9.73145 22.7094 7.01172 20.6635 4.96094ZM12.9974 21.6406C11.3763 21.6406 9.78943 21.2061 8.40759 20.3857L8.08044 20.1904L4.67224 21.084L5.58044 17.7588L5.3656 17.417C4.46228 15.9814 3.98865 14.3262 3.98865 12.6221C3.98865 7.65625 8.03162 3.61328 13.0023 3.61328C15.4095 3.61328 17.6703 4.55078 19.3695 6.25488C21.0687 7.95898 22.1136 10.2197 22.1088 12.627C22.1088 17.5977 17.9633 21.6406 12.9974 21.6406ZM17.9388 14.8926C17.6703 14.7559 16.3373 14.1016 16.0883 14.0137C15.8392 13.9209 15.6586 13.877 15.4779 14.1504C15.2972 14.4238 14.7797 15.0293 14.6185 15.2148C14.4623 15.3955 14.3011 15.4199 14.0326 15.2832C12.4408 14.4873 11.3959 13.8623 10.3461 12.0605C10.0677 11.582 10.6244 11.6162 11.142 10.5811C11.2299 10.4004 11.1859 10.2441 11.1176 10.1074C11.0492 9.9707 10.5072 8.6377 10.2826 8.0957C10.0629 7.56836 9.83826 7.6416 9.67224 7.63184C9.51599 7.62207 9.33533 7.62207 9.15466 7.62207C8.974 7.62207 8.68103 7.69043 8.43201 7.95898C8.18298 8.23242 7.48474 8.88672 7.48474 10.2197C7.48474 11.5527 8.45642 12.8418 8.58826 13.0225C8.72498 13.2031 10.4974 15.9375 13.2172 17.1143C14.9359 17.8564 15.6097 17.9199 16.4691 17.793C16.9916 17.7148 18.0707 17.1387 18.2953 16.5039C18.5199 15.8691 18.5199 15.3271 18.4515 15.2148C18.3881 15.0928 18.2074 15.0244 17.9388 14.8926Z" fill="url(#paint0_linear_108_8)"/>
<defs>
<linearGradient id="paint0_linear_108_8" x1="1.2117" y1="12.7197" x2="21.8617" y2="12.7197" gradientUnits="userSpaceOnUse">
<stop stop-color="#5628D2"/>
<stop offset="0.322" stop-color="#5628D2"/>
<stop offset="1" stop-color="#FF6A00"/>
</linearGradient>
</defs>
</svg>
